<mxfile host="app.diagrams.net" agent="Mozilla/5.0 (Windows NT 10.0; Win64; x64; rv:131.0) Gecko/20100101 Firefox/131.0" version="24.8.3">
  <diagram id="C5RBs43oDa-KdzZeNtuy" name="Page-1">
    <mxGraphModel dx="922" dy="473" grid="1" gridSize="10" guides="1" tooltips="1" connect="1" arrows="1" fold="1" page="1" pageScale="1" pageWidth="827" pageHeight="1169" math="0" shadow="0">
      <root>
        <mxCell id="WIyWlLk6GJQsqaUBKTNV-0" />
        <mxCell id="WIyWlLk6GJQsqaUBKTNV-1" parent="WIyWlLk6GJQsqaUBKTNV-0" />
        <mxCell id="zkfFHV4jXpPFQw0GAbJ--0" value="User" style="swimlane;fontStyle=3;align=center;verticalAlign=top;childLayout=stackLayout;horizontal=1;startSize=26;horizontalStack=0;resizeParent=1;resizeLast=0;collapsible=1;marginBottom=0;rounded=0;shadow=0;strokeWidth=1;" parent="WIyWlLk6GJQsqaUBKTNV-1" vertex="1">
          <mxGeometry x="140" y="70" width="170" height="130" as="geometry">
            <mxRectangle x="220" y="120" width="160" height="26" as="alternateBounds" />
          </mxGeometry>
        </mxCell>
        <mxCell id="wPTM1wY1f31gtMHC6kJm-3" value="&lt;div style=&quot;font-size: 13px; line-height: 140%;&quot; align=&quot;left&quot;&gt;&lt;font face=&quot;7kK2OFJMczPGEC4zh293&quot; style=&quot;font-size: 13px;&quot;&gt;&amp;nbsp;- &lt;font style=&quot;font-size: 13px;&quot;&gt;Name: String&lt;/font&gt;&lt;/font&gt;&lt;font face=&quot;7kK2OFJMczPGEC4zh293&quot; style=&quot;font-size: 13px;&quot;&gt;&lt;br&gt;&amp;nbsp;- Phone: int&lt;/font&gt;&lt;font face=&quot;7kK2OFJMczPGEC4zh293&quot;&gt;&lt;br&gt;&lt;font style=&quot;font-size: 13px;&quot;&gt;&amp;nbsp;- Email: String&lt;/font&gt;&lt;br&gt;&lt;font style=&quot;font-size: 13px;&quot;&gt;&amp;nbsp;- Address: String&lt;br&gt;&lt;/font&gt;&lt;/font&gt;&lt;/div&gt;" style="text;strokeColor=none;align=left;fillColor=none;html=1;verticalAlign=middle;whiteSpace=wrap;rounded=0;" vertex="1" parent="zkfFHV4jXpPFQw0GAbJ--0">
          <mxGeometry y="26" width="170" height="104" as="geometry" />
        </mxCell>
        <mxCell id="zkfFHV4jXpPFQw0GAbJ--6" value="Customer" style="swimlane;fontStyle=1;align=center;verticalAlign=top;childLayout=stackLayout;horizontal=1;startSize=26;horizontalStack=0;resizeParent=1;resizeLast=0;collapsible=1;marginBottom=0;rounded=0;shadow=0;strokeWidth=1;" parent="WIyWlLk6GJQsqaUBKTNV-1" vertex="1">
          <mxGeometry x="360" y="70" width="160" height="100" as="geometry">
            <mxRectangle x="130" y="380" width="160" height="26" as="alternateBounds" />
          </mxGeometry>
        </mxCell>
        <mxCell id="wPTM1wY1f31gtMHC6kJm-1" value="&lt;p style=&quot;line-height: 140%;&quot;&gt;&amp;nbsp;&lt;font face=&quot;Helvetica&quot; style=&quot;font-size: 13px;&quot;&gt;&lt;span lang=&quot;en&quot; class=&quot;Y2IQFc&quot;&gt;- CustomerID: int&lt;/span&gt;&lt;/font&gt;&lt;/p&gt;&lt;div style=&quot;font-size: 13px;&quot; align=&quot;left&quot;&gt;&lt;font face=&quot;2loo8D_tLi4eNcZcyQox&quot; style=&quot;font-size: 13px;&quot;&gt;&lt;span lang=&quot;en&quot; class=&quot;Y2IQFc&quot;&gt;&amp;nbsp;- PurchaseId: int&lt;br&gt;&lt;/span&gt;&lt;/font&gt;&lt;/div&gt;&lt;p&gt;&lt;/p&gt;&lt;p&gt;&lt;/p&gt;" style="text;strokeColor=none;align=left;fillColor=none;html=1;verticalAlign=middle;whiteSpace=wrap;rounded=0;" vertex="1" parent="zkfFHV4jXpPFQw0GAbJ--6">
          <mxGeometry y="26" width="160" height="74" as="geometry" />
        </mxCell>
        <mxCell id="wPTM1wY1f31gtMHC6kJm-17" style="edgeStyle=orthogonalEdgeStyle;rounded=0;orthogonalLoop=1;jettySize=auto;html=1;exitX=0.5;exitY=1;exitDx=0;exitDy=0;" edge="1" parent="zkfFHV4jXpPFQw0GAbJ--6" source="wPTM1wY1f31gtMHC6kJm-1" target="wPTM1wY1f31gtMHC6kJm-1">
          <mxGeometry relative="1" as="geometry" />
        </mxCell>
        <mxCell id="zkfFHV4jXpPFQw0GAbJ--13" value="Seller" style="swimlane;fontStyle=1;align=center;verticalAlign=top;childLayout=stackLayout;horizontal=1;startSize=26;horizontalStack=0;resizeParent=1;resizeLast=0;collapsible=1;marginBottom=0;rounded=0;shadow=0;strokeWidth=1;" parent="WIyWlLk6GJQsqaUBKTNV-1" vertex="1">
          <mxGeometry x="570" y="70" width="160" height="130" as="geometry">
            <mxRectangle x="330" y="360" width="170" height="26" as="alternateBounds" />
          </mxGeometry>
        </mxCell>
        <mxCell id="wPTM1wY1f31gtMHC6kJm-20" value="&lt;div style=&quot;line-height: 190%;&quot; align=&quot;left&quot;&gt;&lt;ul style=&quot;line-height: 190%;&quot;&gt;&lt;li&gt;ID Vendedor&lt;/li&gt;&lt;li&gt;CIF&lt;/li&gt;&lt;li&gt;Razon Social&lt;/li&gt;&lt;li&gt;ID de Producto&lt;/li&gt;&lt;/ul&gt;&lt;/div&gt;" style="text;strokeColor=none;align=left;fillColor=none;html=1;verticalAlign=middle;whiteSpace=wrap;rounded=0;" vertex="1" parent="zkfFHV4jXpPFQw0GAbJ--13">
          <mxGeometry y="26" width="160" height="104" as="geometry" />
        </mxCell>
        <mxCell id="zkfFHV4jXpPFQw0GAbJ--16" value="" style="endArrow=block;endFill=0;shadow=0;strokeWidth=1;rounded=0;curved=0;edgeStyle=elbowEdgeStyle;elbow=vertical;strokeColor=#0A0A0A;" parent="WIyWlLk6GJQsqaUBKTNV-1" source="zkfFHV4jXpPFQw0GAbJ--13" target="zkfFHV4jXpPFQw0GAbJ--0" edge="1">
          <mxGeometry width="160" relative="1" as="geometry">
            <mxPoint x="210" y="373" as="sourcePoint" />
            <mxPoint x="310" y="271" as="targetPoint" />
            <Array as="points">
              <mxPoint x="450" y="30" />
              <mxPoint x="470" y="330" />
              <mxPoint x="340" y="360" />
              <mxPoint x="320" y="290" />
            </Array>
          </mxGeometry>
        </mxCell>
        <mxCell id="wPTM1wY1f31gtMHC6kJm-11" value="Registro de Compra" style="swimlane;fontStyle=1;align=center;verticalAlign=top;childLayout=stackLayout;horizontal=1;startSize=26;horizontalStack=0;resizeParent=1;resizeLast=0;collapsible=1;marginBottom=0;rounded=0;shadow=0;strokeWidth=1;" vertex="1" parent="WIyWlLk6GJQsqaUBKTNV-1">
          <mxGeometry x="334" y="240" width="160" height="130" as="geometry">
            <mxRectangle x="330" y="360" width="170" height="26" as="alternateBounds" />
          </mxGeometry>
        </mxCell>
        <mxCell id="wPTM1wY1f31gtMHC6kJm-13" value="&lt;div align=&quot;left&quot;&gt;&lt;ul style=&quot;line-height: 180%;&quot;&gt;&lt;li&gt;ID de Compra&lt;/li&gt;&lt;li&gt;ID de Cliente&lt;/li&gt;&lt;li&gt;Fecha de Compra&lt;/li&gt;&lt;li&gt;ID de Producto&lt;/li&gt;&lt;/ul&gt;&lt;/div&gt;" style="text;strokeColor=none;align=left;fillColor=none;html=1;verticalAlign=middle;whiteSpace=wrap;rounded=0;arcSize=0;" vertex="1" parent="wPTM1wY1f31gtMHC6kJm-11">
          <mxGeometry y="26" width="160" height="104" as="geometry" />
        </mxCell>
        <mxCell id="wPTM1wY1f31gtMHC6kJm-15" value="" style="endArrow=none;html=1;rounded=0;" edge="1" parent="WIyWlLk6GJQsqaUBKTNV-1">
          <mxGeometry width="50" height="50" relative="1" as="geometry">
            <mxPoint x="440" y="70" as="sourcePoint" />
            <mxPoint x="440" y="30" as="targetPoint" />
          </mxGeometry>
        </mxCell>
        <mxCell id="wPTM1wY1f31gtMHC6kJm-23" value="Inventario" style="swimlane;whiteSpace=wrap;html=1;" vertex="1" parent="WIyWlLk6GJQsqaUBKTNV-1">
          <mxGeometry x="600" y="240" width="200" height="120" as="geometry" />
        </mxCell>
        <mxCell id="wPTM1wY1f31gtMHC6kJm-25" value="&lt;p style=&quot;line-height: 130%;&quot;&gt;&lt;/p&gt;&lt;ul style=&quot;line-height: 180%;&quot;&gt;&lt;li align=&quot;left&quot;&gt;ID del Producto&lt;/li&gt;&lt;li align=&quot;left&quot;&gt;Descripcion del producto&lt;/li&gt;&lt;li align=&quot;left&quot;&gt;ID del Vendedor&lt;/li&gt;&lt;/ul&gt;&lt;p&gt;&lt;/p&gt;" style="text;strokeColor=none;align=left;fillColor=none;html=1;verticalAlign=middle;whiteSpace=wrap;rounded=0;" vertex="1" parent="wPTM1wY1f31gtMHC6kJm-23">
          <mxGeometry y="30" width="200" height="90" as="geometry" />
        </mxCell>
        <mxCell id="wPTM1wY1f31gtMHC6kJm-24" style="edgeStyle=orthogonalEdgeStyle;rounded=0;orthogonalLoop=1;jettySize=auto;html=1;entryX=0.545;entryY=0;entryDx=0;entryDy=0;entryPerimeter=0;" edge="1" parent="WIyWlLk6GJQsqaUBKTNV-1" source="wPTM1wY1f31gtMHC6kJm-20" target="wPTM1wY1f31gtMHC6kJm-23">
          <mxGeometry relative="1" as="geometry" />
        </mxCell>
        <mxCell id="wPTM1wY1f31gtMHC6kJm-16" style="edgeStyle=orthogonalEdgeStyle;rounded=0;orthogonalLoop=1;jettySize=auto;html=1;entryX=0.5;entryY=0;entryDx=0;entryDy=0;" edge="1" parent="WIyWlLk6GJQsqaUBKTNV-1" source="wPTM1wY1f31gtMHC6kJm-1" target="wPTM1wY1f31gtMHC6kJm-11">
          <mxGeometry relative="1" as="geometry">
            <mxPoint x="440" y="230" as="targetPoint" />
          </mxGeometry>
        </mxCell>
        <mxCell id="wPTM1wY1f31gtMHC6kJm-29" value="&lt;div style=&quot;font-size: 11px;&quot; align=&quot;left&quot;&gt;&lt;ul&gt;&lt;li&gt;&lt;font style=&quot;font-size: 9px;&quot;&gt;ManyToMany&lt;/font&gt;&lt;/li&gt;&lt;/ul&gt;&lt;/div&gt;" style="text;strokeColor=none;align=left;fillColor=none;html=1;verticalAlign=middle;whiteSpace=wrap;rounded=0;" vertex="1" parent="WIyWlLk6GJQsqaUBKTNV-1">
          <mxGeometry x="680" y="200" width="60" height="30" as="geometry" />
        </mxCell>
        <mxCell id="wPTM1wY1f31gtMHC6kJm-30" value="&lt;div align=&quot;left&quot;&gt;&lt;ul&gt;&lt;li&gt;&lt;font style=&quot;font-size: 8px;&quot;&gt;OneToMany&lt;/font&gt;&lt;/li&gt;&lt;/ul&gt;&lt;/div&gt;" style="text;strokeColor=none;align=left;fillColor=none;html=1;verticalAlign=middle;whiteSpace=wrap;rounded=0;" vertex="1" parent="WIyWlLk6GJQsqaUBKTNV-1">
          <mxGeometry x="414" y="190" width="60" height="30" as="geometry" />
        </mxCell>
      </root>
    </mxGraphModel>
  </diagram>
</mxfile>
